<svg xmlns="http://www.w3.org/2000/svg" xmlns:xlink="http://www.w3.org/1999/xlink" width="38.571" height="30.853" viewBox="0 0 38.571 30.853">
  <defs>
    <clipPath id="clip-path">
      <rect width="38.571" height="30.853" fill="none"/>
    </clipPath>
  </defs>
  <g id="done_icon" data-name="done icon" transform="translate(0)" clip-path="url(#clip-path)">
    <path id="Path_20" data-name="Path 20" d="M18.1,34.277a1.368,1.368,0,0,0,.8.249,1.243,1.243,0,0,0,.8-.272l11.7-9.225,2.114-1.666a.776.776,0,0,0,0-1.291,1.369,1.369,0,0,0-1.637,0L20.213,31.312,18.9,32.352l-6.118-4.823a1.369,1.369,0,0,0-1.637,0,.776.776,0,0,0,0,1.291Z" transform="translate(-2.8 -10.424)" fill="#119100"/>
  </g>
</svg>
